<svg viewBox="0 0 32 32" xmlns="http://www.w3.org/2000/svg"><path d="M11.89 26.45a3.49 3.49 0 01-1.59-.39l-.2-.13L5.51 22H3.44A3.25 3.25 0 010 19v-6a3.25 3.25 0 013.44-3h2.07l4.79-4.06a3.29 3.29 0 013.26.06A2.92 2.92 0 0115 8.5v15a2.92 2.92 0 01-1.44 2.5 3.22 3.22 0 01-1.67.45zm-.59-2.13a1.31 1.31 0 001.22 0 1 1 0 00.48-.82v-15a.94.94 0 00-.48-.78 1.28 1.28 0 00-1.22 0L6.25 12H3.44C2.67 12 2 12.47 2 13v6c0 .53.67 1 1.44 1h2.81zm9.2-.62a3.48 3.48 0 01-2.47-1 3.52 3.52 0 010-5l1.38-1.36L18.08 15a3.51 3.51 0 115-4.93l1.35 1.38 1.37-1.36a3.52 3.52 0 015 0 3.54 3.54 0 010 5l-1.38 1.35 1.36 1.37a3.5 3.5 0 11-5 4.93l-1.36-1.38L23 22.7a3.48 3.48 0 01-2.5 1zm3.88-5.18l2.76 2.79a1.5 1.5 0 102.13-2.12l-2.75-2.79 2.79-2.76a1.51 1.51 0 000-2.12 1.51 1.51 0 00-2.13 0l-2.78 2.76-2.76-2.81a1.5 1.5 0 00-2.14 2.11l2.78 2.8-2.81 2.76a1.51 1.51 0 000 2.12 1.55 1.55 0 002.12 0z"/></svg>