<svg viewBox="0 0 32 32" xmlns="http://www.w3.org/2000/svg"><path d="M11.89 27.45a3.49 3.49 0 01-1.59-.39l-.2-.13L5.51 23H3.44A3.25 3.25 0 010 20v-6a3.25 3.25 0 013.44-3h2.07l4.79-4.06a3.29 3.29 0 013.26.06A2.92 2.92 0 0115 9.5v15a2.92 2.92 0 01-1.44 2.5 3.22 3.22 0 01-1.67.45zm-.59-2.13a1.31 1.31 0 001.22 0 1 1 0 00.48-.82v-15a.94.94 0 00-.48-.78 1.31 1.31 0 00-1.22 0L6.25 13H3.44C2.67 13 2 13.47 2 14v6c0 .53.67 1 1.44 1h2.81zm7.79.68a2.66 2.66 0 01-2.23-1.2 2.63 2.63 0 01-.39-2 2.7 2.7 0 011-1.64c.24-.25 1-1.24 1-3.61 0-3.4-1.33-4.9-1.34-4.91A2.67 2.67 0 0121 8.91c.29.3 2.87 3 2.87 8.65s-2.72 7.61-3.26 8a2.67 2.67 0 01-1.52.44zm0-15.86a.65.65 0 00-.46.19.68.68 0 000 .95c.06.05 1.89 1.94 1.89 6.28 0 3.52-1.42 4.9-1.7 5.14l-.09.07a.69.69 0 00-.29.43.65.65 0 00.1.49.67.67 0 00.94.19c.23-.15 2.38-1.77 2.38-6.32 0-4.89-2.19-7.14-2.29-7.23a.62.62 0 00-.47-.19z"/><path d="M26.2 29.13a2.66 2.66 0 01-2.2-1.2 2.68 2.68 0 01.74-3.69s1.95-1.6 1.95-6.43c0-5.52-2.14-8-2.39-8.29a2.67 2.67 0 013.82-3.74c.16.16 3.91 4 3.91 12 0 7.51-3.58 10.37-4.3 10.86a2.7 2.7 0 01-1.53.49zM26.2 7a.65.65 0 00-.46.19.67.67 0 000 1c.51.56 2.93 3.53 2.93 9.67s-2.69 8-2.81 8.07a.73.73 0 00-.31.45.65.65 0 00.1.49.67.67 0 00.94.19c.33-.23 3.42-2.55 3.42-9.2 0-7.2-3.19-10.48-3.33-10.61A.67.67 0 0026.2 7z"/></svg>